<?xml version="1.0" standalone="no"?>
<!DOCTYPE svg PUBLIC "-//W3C//DTD SVG 20010904//EN"
 "http://www.w3.org/TR/2001/REC-SVG-20010904/DTD/svg10.dtd">
<svg version="1.0" xmlns="http://www.w3.org/2000/svg"
 width="300.000000pt" height="300.000000pt" viewBox="0 0 300.000000 300.000000"
 preserveAspectRatio="xMidYMid meet">
<metadata>
Created by potrace 1.10, written by Peter Selinger 2001-2011
</metadata>
<g transform="translate(0.000000,300.000000) scale(0.100000,-0.100000)"
fill="#fff" stroke="none">
<path d="M450 1993 c1 -381 4 -552 11 -541 6 11 10 205 10 533 1 443 3 517 16
530 12 13 114 15 773 15 446 0 761 -4 764 -9 8 -13 9 -1328 1 -1341 -4 -6
-128 -10 -363 -11 -334 0 -422 -5 -379 -22 9 -3 187 -6 397 -7 l380 0 0 705 0
705 -805 0 -805 0 0 -557z"/>
<path d="M1500 2310 c-179 -59 -231 -73 -289 -74 -54 -1 -66 -4 -79 -24 -8
-12 -24 -22 -37 -22 -16 0 -26 -10 -38 -37 -9 -21 -35 -69 -58 -108 -22 -38
-43 -84 -46 -102 -3 -19 -21 -46 -44 -69 -22 -21 -39 -43 -39 -49 0 -6 -8 -27
-19 -47 -10 -20 -26 -87 -35 -150 -23 -150 -23 -149 -50 -181 -22 -28 -25 -28
-64 -16 -32 9 -64 9 -143 0 -57 -6 -104 -12 -105 -14 -3 -3 -7 -167 -6 -224 2
-51 3 -53 30 -53 23 0 32 8 50 45 12 25 22 48 22 51 0 4 -19 -10 -43 -29 l-43
-35 1 65 c1 70 0 69 80 131 17 13 24 21 18 17 -7 -3 -13 -2 -13 3 0 13 71 23
109 16 38 -8 38 -12 5 -47 -19 -20 -29 -25 -38 -18 -9 8 -17 1 -29 -25 -9 -19
-17 -44 -17 -55 0 -19 2 -19 36 5 20 14 44 36 53 49 21 32 121 143 121 135 0
-4 -5 -19 -11 -35 -7 -15 -15 -70 -19 -122 -9 -103 1 -154 29 -149 18 4 17 2
26 111 4 42 11 75 15 72 5 -3 4 8 -2 25 -10 30 -7 116 8 270 5 49 9 60 16 45
5 -13 7 -5 3 24 -5 40 -4 43 10 31 11 -9 15 -22 10 -39 -18 -75 -31 -187 -23
-198 5 -6 6 -22 3 -36 -7 -28 47 -147 67 -147 9 0 9 3 0 12 -16 16 -15 31 1
25 8 -3 20 -1 28 4 11 7 9 9 -8 9 -16 0 -28 11 -43 40 -25 49 -25 53 -1 40 15
-7 27 -6 50 7 33 19 51 12 31 -12 -7 -8 -8 -15 -3 -15 5 0 15 12 22 28 7 15 9
24 5 20 -4 -4 -13 0 -21 10 -8 9 -12 12 -9 6 7 -13 -15 -24 -48 -24 -30 0 -52
26 -60 70 l-7 35 15 -31 c14 -32 53 -51 70 -34 15 15 53 12 60 -5 3 -9 24 -24
47 -33 l42 -18 -34 -21 c-36 -24 -49 -23 -29 2 7 9 10 18 7 21 -8 9 -29 -35
-22 -46 3 -6 -5 -14 -18 -19 -18 -7 -27 -22 -36 -56 -12 -48 -7 -71 9 -45 5 8
7 22 5 31 -6 18 25 49 73 73 17 9 32 23 32 31 0 8 5 15 11 15 7 0 8 -7 4 -17
-26 -61 -36 -102 -34 -137 3 -56 -10 -106 -27 -106 -8 0 -14 -4 -14 -9 0 -5
46 -9 103 -10 l102 -1 47 69 c28 40 52 89 59 118 24 112 165 261 233 248 92
-17 131 -16 164 4 26 17 32 27 32 56 0 37 -36 99 -52 89 -4 -3 -8 3 -8 13 0
15 -2 16 -10 3 -8 -12 -10 -10 -10 10 l-1 25 -10 -24 c-7 -18 -6 -27 3 -33 10
-6 10 -8 -2 -9 -8 0 -25 -2 -37 -5 -17 -3 -21 0 -17 11 4 8 10 15 15 15 4 0
14 10 20 23 12 21 11 21 -6 7 -17 -14 -18 -13 -12 3 4 11 3 16 -3 12 -6 -3
-10 -14 -10 -24 0 -9 -7 -26 -15 -37 -14 -19 -14 -19 -15 2 0 11 5 25 11 31 6
6 9 23 7 39 l-4 29 -14 -30 c-21 -46 -41 -65 -67 -65 -27 0 -27 0 -9 45 16 38
32 48 23 14 -3 -11 -3 -27 0 -36 4 -10 11 -6 24 17 23 37 24 51 4 44 -9 -4
-15 0 -15 9 0 8 -5 17 -11 19 -5 2 -12 16 -13 31 -3 22 -1 25 10 16 11 -9 14
-7 15 7 0 18 1 18 9 -1 7 -17 9 -16 10 10 1 17 4 24 7 18 8 -21 23 -15 24 10
0 21 1 21 9 2 8 -18 9 -17 9 8 1 17 7 27 16 27 9 0 12 -6 9 -15 -4 -8 -1 -15
5 -15 6 0 11 19 12 43 0 33 2 38 9 22 8 -19 9 -19 17 5 l7 25 8 -30 c6 -24 7
-22 4 13 -4 43 10 60 16 20 3 -21 5 -21 21 9 31 59 17 150 -34 208 -21 23 -49
40 -94 54 -70 23 -78 24 -115 11z m55 -19 c3 -5 -5 -11 -17 -13 -24 -3 -28
-20 -6 -26 11 -3 11 -2 0 6 -9 6 3 11 39 15 58 7 127 -16 121 -41 -1 -8 2 -11
7 -7 10 6 46 -53 38 -62 -3 -2 -15 0 -27 7 -11 6 -29 8 -40 5 -10 -3 -21 -1
-24 4 -7 11 -100 -18 -143 -45 -15 -11 -66 -52 -113 -93 -102 -88 -120 -100
-156 -107 -15 -3 -39 -13 -53 -23 -14 -10 -42 -22 -61 -26 -19 -4 -47 -18 -61
-32 -31 -28 -42 -19 -33 27 5 23 9 28 16 18 7 -9 8 -8 4 5 -3 10 5 39 19 65
15 27 21 48 15 50 -7 3 -7 9 1 18 8 10 8 14 1 14 -6 0 -16 -10 -23 -21 -8 -15
-8 -19 0 -15 16 10 14 5 -24 -68 -35 -68 -44 -109 -25 -121 21 -13 9 -24 -14
-14 -44 20 -38 97 9 131 5 4 7 8 3 8 -4 0 1 15 12 33 21 33 30 78 10 47 -8
-12 -10 -11 -10 8 0 14 8 26 23 31 15 6 30 26 40 53 18 45 62 81 95 77 9 -1
29 1 44 5 16 5 36 5 45 2 28 -11 -5 -26 -41 -19 -19 4 -27 2 -23 -4 20 -33
117 -17 117 19 0 10 6 18 14 18 8 0 16 7 20 15 3 8 18 15 34 15 15 0 32 4 38
9 8 8 95 38 116 40 4 1 9 -3 13 -8z m85 -155 c0 -7 -3 -28 -6 -46 -5 -22 -9
-28 -15 -18 -10 16 -12 62 -2 71 11 11 23 8 23 -7z m55 4 c4 -6 3 -25 -1 -43
-6 -28 -8 -30 -15 -12 -17 43 -4 87 16 55z m50 -58 c-3 -8 -5 -21 -5 -30 0
-15 -2 -15 -10 -2 -5 8 -10 31 -10 50 1 33 1 34 16 15 8 -11 12 -26 9 -33z
m-195 -4 l0 -43 -20 25 c-23 29 -25 46 -7 53 24 10 27 6 27 -35z m-47 -18 c3
-11 3 -29 0 -41 -5 -18 -7 -17 -25 11 -10 17 -16 35 -13 41 10 16 32 10 38
-11z m107 -2 c0 -5 8 -7 19 -3 13 4 20 0 24 -14 6 -24 -13 -63 -33 -69 -13 -4
-13 -3 0 15 8 10 3 6 -11 -9 -44 -49 -124 -101 -104 -69 3 5 2 12 -3 15 -4 2
-9 -7 -10 -21 -1 -15 -4 -29 -7 -32 -8 -7 -99 19 -103 30 -2 5 -9 6 -14 3 -7
-4 -8 -2 -4 4 4 7 28 12 54 13 41 0 44 2 24 11 l-22 11 22 13 c13 7 33 18 45
23 12 6 37 23 54 38 17 15 36 27 41 25 5 -1 7 7 3 18 -5 15 -3 18 9 14 9 -3
16 -10 16 -16z m-158 -74 c-5 -28 -19 -22 -33 13 -7 18 -6 30 3 40 10 12 13
11 23 -7 7 -12 10 -33 7 -46z m-52 -10 c0 -26 -17 -33 -26 -9 -8 20 3 48 16
40 5 -3 10 -17 10 -31z m-54 -39 c-7 -19 -36 -19 -36 0 0 17 33 38 38 24 2 -5
1 -16 -2 -24z m-66 -70 c-4 -26 -12 -51 -18 -57 -12 -12 -174 -23 -199 -14
-28 11 37 53 80 52 31 -1 43 4 59 24 20 26 42 38 69 39 13 1 15 -7 9 -44z
m149 -5 c55 -15 49 -22 -8 -9 -29 6 -54 6 -72 0 -34 -12 -47 -1 -17 15 24 13
29 13 97 -6z m-485 -13 c-5 -14 30 -51 49 -52 26 -2 67 -18 67 -26 0 -8 -31
-14 -53 -10 -5 1 -6 -3 -3 -8 4 -5 2 -12 -3 -15 -5 -3 -8 7 -7 22 2 23 -2 28
-23 30 -14 1 -28 8 -33 15 -14 21 -9 -38 7 -84 13 -39 13 -42 0 -25 -13 17
-15 18 -15 3 0 -9 4 -17 10 -17 5 0 7 -8 4 -17 -4 -10 3 -5 14 11 31 44 72 76
98 76 17 0 22 4 18 15 -5 11 0 15 17 14 18 -1 19 -3 6 -6 -9 -2 -15 -9 -12
-14 4 -5 -6 -14 -21 -19 -22 -9 -25 -13 -14 -23 10 -9 13 -9 17 1 3 6 13 12
23 12 10 0 21 -6 23 -12 3 -7 6 -3 6 10 1 12 6 22 12 22 12 0 8 -55 -7 -107
-4 -14 -2 -23 5 -23 5 0 8 7 5 15 -4 9 0 15 10 15 17 0 22 16 8 22 -5 2 -7 20
-4 41 4 33 6 36 20 25 10 -8 13 -9 9 -1 -4 6 -1 13 5 16 20 6 39 -4 31 -17 -3
-6 4 -2 16 9 19 16 25 17 43 6 12 -7 17 -8 13 -1 -14 22 53 7 242 -56 77 -26
119 -29 171 -15 30 9 34 8 42 -15 14 -36 13 -42 -11 -55 -46 -24 -136 -12
-125 17 4 11 2 11 -14 2 -13 -9 -16 -14 -7 -20 24 -14 0 -17 -73 -7 -78 11
-102 19 -57 19 14 0 29 5 33 12 5 8 2 9 -10 5 -10 -4 -42 -4 -72 -1 -47 6 -54
9 -49 25 5 14 -1 22 -20 29 -29 11 -65 -5 -65 -29 0 -7 -8 -19 -17 -26 -13
-10 -3 -12 58 -10 l74 2 -62 -13 c-34 -7 -85 -25 -114 -39 -68 -35 -180 -46
-208 -21 -10 9 -21 30 -24 45 -3 16 -13 31 -22 34 -14 6 -14 3 1 -24 8 -17 13
-33 10 -37 -3 -3 -6 0 -6 7 0 7 -5 9 -10 6 -18 -11 -50 6 -50 26 0 10 5 19 10
19 6 0 10 -5 10 -12 0 -6 3 -8 7 -4 5 4 0 14 -11 21 -16 12 -18 24 -14 97 5
86 21 144 38 133 5 -3 7 -11 4 -18z m461 -7 c4 -6 11 -8 16 -5 15 10 49 -5 49
-21 0 -8 -5 -14 -11 -14 -5 0 -8 4 -4 9 3 5 1 12 -4 15 -5 3 -12 -2 -15 -11
-5 -12 -9 -14 -18 -5 -9 9 -16 8 -30 -5 -16 -14 -21 -15 -27 -4 -5 8 -14 10
-21 6 -9 -6 -9 -10 1 -17 10 -6 7 -7 -10 -3 -16 5 -21 4 -17 -4 5 -7 -2 -11
-18 -11 -14 0 -26 5 -26 11 0 6 6 9 14 6 8 -3 17 1 20 9 6 16 65 54 83 54 6 0
15 -5 18 -10z m101 -31 c19 -7 -13 -69 -36 -69 -27 0 -26 30 1 37 16 5 19 11
14 32 -3 14 -2 21 2 15 4 -6 13 -13 19 -15z m-96 -21 c0 -9 3 -9 12 0 26 26
37 10 14 -21 -11 -15 -18 -16 -39 -6 -20 9 -23 14 -14 25 15 17 27 18 27 2z
m-437 -45 c3 -16 1 -32 -5 -38 -8 -7 -9 -5 -5 8 4 9 2 17 -3 17 -6 0 -10 9
-10 20 0 30 17 24 23 -7z m364 -96 c-6 -19 -47 -21 -47 -3 0 9 5 16 11 16 5 0
7 5 3 11 -4 7 1 7 15 -1 12 -6 20 -17 18 -23z m-431 -74 c11 -4 12 -9 3 -19
-8 -9 -8 -14 -1 -14 6 0 14 5 17 10 10 16 42 12 49 -6 8 -22 9 -21 -23 -32
-42 -15 -67 6 -74 62 -4 25 -3 54 1 63 5 13 8 7 10 -20 2 -22 10 -41 18 -44z
m601 13 c4 -3 -3 -6 -15 -6 -12 0 -22 -4 -22 -8 0 -21 -232 -107 -320 -119
-25 -3 -43 -3 -40 0 3 3 59 23 125 45 66 22 136 48 155 57 34 15 34 16 5 10
-16 -4 -70 -22 -120 -40 -148 -56 -179 -62 -227 -45 -25 9 -44 24 -49 37 -7
20 -6 21 17 13 47 -18 110 -11 179 20 37 17 74 30 83 29 11 0 9 -4 -8 -11 -14
-7 -52 -24 -85 -38 -33 -15 -71 -32 -85 -38 -24 -11 -24 -11 5 -5 17 3 72 25
123 49 52 24 99 44 105 45 7 0 3 4 -8 9 -13 6 15 8 78 6 54 -2 101 -6 104 -10z
m-133 -128 c-19 -38 -39 -59 -47 -52 -3 3 -3 -3 0 -14 5 -19 -32 -69 -97 -130
-22 -21 -23 -22 -3 -13 12 6 33 26 48 43 l27 33 -6 -34 c-4 -19 -14 -43 -23
-53 -30 -33 -99 -67 -132 -65 -41 3 -40 13 3 21 19 4 39 13 46 21 13 15 0 21
-14 8 -4 -5 -24 -13 -44 -19 -25 -7 -37 -16 -36 -27 1 -9 -4 -17 -12 -17 -21
0 -12 152 14 215 18 47 22 50 51 47 19 -2 31 1 31 8 0 8 10 9 31 5 24 -6 30
-4 24 5 -5 9 -4 11 4 6 6 -4 19 -2 27 5 22 18 27 6 6 -17 -40 -44 -91 -123
-75 -117 19 8 12 -9 -21 -45 l-21 -24 25 12 c26 11 67 70 50 70 -6 0 7 25 28
56 25 38 52 64 82 79 25 13 46 24 48 25 1 0 -5 -14 -14 -32z"/>
<path d="M1580 2255 c-8 -9 -8 -15 -2 -15 6 0 12 5 14 12 6 18 73 -25 72 -45
-1 -10 4 -17 11 -17 24 0 4 39 -30 60 -39 24 -49 25 -65 5z"/>
<path d="M1480 2225 c-29 -17 -44 -19 -35 -5 3 5 -26 -9 -65 -31 -38 -22 -70
-43 -70 -46 0 -2 28 11 63 30 45 25 67 32 82 26 34 -13 58 -11 51 7 -3 8 -2
12 4 9 6 -3 10 1 10 9 0 19 -8 20 -40 1z"/>
<path d="M1114 2152 c-17 -26 -28 -85 -13 -77 5 4 9 0 9 -8 0 -7 11 -24 24
-36 14 -13 22 -29 19 -37 -4 -10 0 -12 11 -8 13 5 14 9 5 20 -9 11 -4 22 25
54 20 22 36 45 36 50 0 6 -10 24 -22 40 -27 37 -71 38 -94 2z m76 -7 c10 -12
10 -21 0 -46 -10 -24 -18 -29 -39 -27 -23 3 -26 7 -24 37 2 47 37 67 63 36z"/>
<path d="M1147 2120 c-16 -19 -16 -20 1 -17 26 4 43 17 37 28 -9 14 -19 11
-38 -11z"/>
<path d="M1280 2112 c0 -6 4 -14 10 -17 11 -7 33 -45 26 -45 -3 0 -17 12 -31
27 -28 31 -34 20 -9 -15 8 -12 22 -22 30 -22 26 0 26 27 0 55 -14 15 -26 23
-26 17z"/>
<path d="M1214 2069 c-4 -7 -7 -26 -7 -41 2 -52 6 -53 13 -3 8 54 6 63 -6 44z"/>
<path d="M989 1692 c-18 -21 -18 -44 2 -87 19 -39 39 -43 38 -7 0 24 -1 25 -9
7 -7 -19 -8 -19 -15 -1 -5 10 -3 38 2 62 11 48 6 54 -18 26z"/>
<path d="M1087 1653 c-12 -11 -8 -31 8 -37 11 -4 15 1 15 19 0 24 -10 32 -23
18z"/>
<path d="M1201 1644 c-1 -31 -26 -48 -73 -53 -5 -1 -8 -5 -8 -10 0 -10 7 -9
53 4 27 7 44 41 34 67 -3 7 -6 3 -6 -8z"/>
<path d="M1500 1631 c0 -10 50 -25 57 -17 3 2 2 10 -2 16 -6 9 -10 9 -16 -1
-6 -10 -9 -11 -9 -1 0 6 -7 12 -15 12 -8 0 -15 -4 -15 -9z"/>
<path d="M1160 1368 c-41 -51 -45 -64 -13 -38 17 14 29 28 27 32 -3 4 6 14 18
22 14 10 17 16 8 15 -8 0 -26 -14 -40 -31z"/>
<path d="M562 1362 c-13 -9 -52 -102 -52 -124 0 -7 20 16 44 52 47 71 51 99 8
72z"/>
<path d="M1041 1329 c0 -8 -12 -30 -26 -49 -14 -19 -23 -40 -21 -47 3 -7 -1
-27 -9 -45 l-14 -33 -1 48 c0 26 -4 47 -10 47 -5 0 -10 -25 -10 -55 0 -47 3
-55 19 -55 24 0 51 42 44 68 -3 13 4 36 17 56 12 20 20 46 17 58 -2 13 -5 16
-6 7z"/>
<path d="M690 1299 c0 -2 -14 -37 -30 -78 -17 -40 -30 -75 -30 -77 0 -2 11 -4
25 -4 23 0 25 4 25 43 0 23 4 58 10 76 5 19 7 37 5 40 -3 2 -5 2 -5 0z"/>
<path d="M872 1238 c2 -13 7 -28 11 -34 8 -13 -16 -38 -26 -27 -4 3 -7 -1 -7
-10 0 -20 11 -22 29 -4 10 10 12 9 9 -3 -2 -10 6 -15 25 -16 31 -1 33 2 12 22
-8 9 -15 26 -15 39 0 34 -10 55 -26 55 -9 0 -14 -8 -12 -22z"/>
<path d="M608 1233 c-8 -10 -22 -30 -31 -45 -10 -16 -24 -28 -33 -28 -8 0 -12
-4 -9 -10 3 -5 24 -10 46 -10 21 0 39 5 39 10 0 6 -6 10 -14 10 -27 0 -26 18
0 50 15 17 24 33 22 35 -3 3 -11 -3 -20 -12z"/>
<path d="M711 1198 c-1 -21 -2 -41 -3 -45 -1 -5 7 -10 17 -12 14 -2 16 1 10
15 -4 11 -11 33 -15 49 -8 30 -8 30 -9 -7z"/>
<path d="M798 1048 c-9 -7 -30 -52 -47 -100 l-30 -88 29 0 c19 0 30 5 30 14 0
7 11 16 24 18 20 4 26 0 28 -16 3 -22 34 -34 48 -19 11 12 -25 184 -41 194
-18 12 -22 11 -41 -3z m24 -82 c4 -19 0 -25 -18 -29 -22 -4 -23 -3 -8 24 18
35 20 36 26 5z"/>
<path d="M948 1053 c-37 -4 -38 -5 -38 -46 0 -23 -3 -66 -6 -94 -7 -52 -7 -53
20 -53 24 0 27 4 24 27 -4 37 17 40 32 3 13 -32 28 -38 47 -19 9 9 8 19 -3 41
-13 25 -13 30 1 44 16 16 20 61 7 80 -10 15 -40 21 -84 17z m50 -55 c-2 -6
-14 -18 -26 -26 -21 -14 -22 -13 -22 12 0 21 5 26 26 26 15 0 24 -5 22 -12z"/>
<path d="M1108 1048 c-47 -39 -64 -121 -32 -166 22 -32 76 -30 103 4 17 22 19
30 9 41 -10 13 -15 12 -30 -7 -29 -35 -52 -19 -45 32 3 22 13 48 21 57 15 14
16 13 16 -12 0 -22 4 -27 25 -27 21 0 25 5 25 29 0 48 -56 77 -92 49z"/>
<path d="M1287 1048 c-17 -14 -30 -41 -57 -130 l-18 -58 29 0 c19 0 29 5 29
15 0 8 4 15 9 15 5 0 16 3 25 6 12 5 16 0 16 -20 0 -21 5 -26 25 -26 30 0 31
8 10 116 -17 90 -32 108 -68 82z m21 -93 c-1 -10 -11 -19 -20 -21 -21 -3 -21
-2 -6 31 12 28 32 20 26 -10z"/>
<path d="M1424 1053 c-26 -5 -34 -37 -34 -132 l0 -67 40 4 c29 3 47 12 65 34
36 43 38 121 3 151 -20 17 -32 18 -74 10z m50 -88 c-1 -24 -8 -43 -20 -52 -9
-7 -19 -11 -21 -10 -1 2 0 27 4 56 5 40 9 51 22 49 12 -3 16 -14 15 -43z"/>
<path d="M1544 1048 c-5 -7 -3 -8 6 -3 10 6 12 4 7 -8 -3 -9 -9 -49 -13 -89
-3 -40 -7 -77 -8 -83 -1 -8 43 -10 50 -2 1 1 4 46 6 100 4 95 3 97 -18 97 -13
0 -26 -5 -30 -12z"/>
<path d="M1679 1053 c-10 -2 -19 -12 -22 -21 -3 -9 -17 -50 -31 -90 -14 -41
-26 -76 -26 -78 0 -2 14 -4 30 -4 19 0 30 5 30 14 0 14 34 28 44 18 3 -3 6
-14 6 -24 0 -13 7 -18 25 -18 15 0 25 6 25 14 0 34 -31 170 -41 182 -12 14
-13 15 -40 7z m21 -92 c0 -10 -9 -21 -20 -24 -23 -6 -23 -6 -10 28 11 28 30
25 30 -4z"/>
</g>
</svg>
